<?xml version="1.0" encoding="UTF-8"?>
<svg xmlns="http://www.w3.org/2000/svg" xmlns:xlink="http://www.w3.org/1999/xlink" width="187px" height="66px" viewBox="0 0 186 66" version="1.1">
<defs>
<linearGradient id="linear0" gradientUnits="userSpaceOnUse" x1="53.3789" y1="46.7981" x2="946.6265" y2="46.7981" gradientTransform="matrix(0.186,0,0,-0.186969,0,38.391976)">
<stop offset="0" style="stop-color:rgb(61.176471%,38.039216%,65.882353%);stop-opacity:1;"/>
<stop offset="0.5469" style="stop-color:rgb(80.784314%,41.568627%,50.980392%);stop-opacity:1;"/>
<stop offset="1" style="stop-color:rgb(91.764706%,74.117647%,62.745098%);stop-opacity:1;"/>
</linearGradient>
<linearGradient id="linear1" gradientUnits="userSpaceOnUse" x1="53.3789" y1="53.3106" x2="946.6265" y2="53.3106" gradientTransform="matrix(0.186,0,0,-0.186969,0,38.391976)">
<stop offset="0" style="stop-color:rgb(61.176471%,38.039216%,65.882353%);stop-opacity:1;"/>
<stop offset="0.5469" style="stop-color:rgb(80.784314%,41.568627%,50.980392%);stop-opacity:1;"/>
<stop offset="1" style="stop-color:rgb(91.764706%,74.117647%,62.745098%);stop-opacity:1;"/>
</linearGradient>
<linearGradient id="linear2" gradientUnits="userSpaceOnUse" x1="53.3789" y1="53.5153" x2="946.6265" y2="53.5153" gradientTransform="matrix(0.186,0,0,-0.186969,0,38.391976)">
<stop offset="0" style="stop-color:rgb(61.176471%,38.039216%,65.882353%);stop-opacity:1;"/>
<stop offset="0.5469" style="stop-color:rgb(80.784314%,41.568627%,50.980392%);stop-opacity:1;"/>
<stop offset="1" style="stop-color:rgb(91.764706%,74.117647%,62.745098%);stop-opacity:1;"/>
</linearGradient>
<linearGradient id="linear3" gradientUnits="userSpaceOnUse" x1="53.3789" y1="53.5153" x2="946.6265" y2="53.5153" gradientTransform="matrix(0.186,0,0,-0.186969,0,38.391976)">
<stop offset="0" style="stop-color:rgb(61.176471%,38.039216%,65.882353%);stop-opacity:1;"/>
<stop offset="0.5469" style="stop-color:rgb(80.784314%,41.568627%,50.980392%);stop-opacity:1;"/>
<stop offset="1" style="stop-color:rgb(91.764706%,74.117647%,62.745098%);stop-opacity:1;"/>
</linearGradient>
</defs>
<g id="surface1">
<path style=" stroke:none;fill-rule:nonzero;fill:url(#linear0);" d="M 57.996094 14.59375 C 61.34375 18.445312 63.015625 23.457031 63.015625 29.644531 C 63.015625 35.832031 61.34375 40.84375 57.996094 44.695312 C 54.648438 48.546875 50.257812 50.472656 44.84375 50.472656 L 10.972656 50.472656 L 10.972656 35.851562 L 43.246094 35.851562 C 47.019531 35.851562 48.917969 33.777344 48.917969 29.644531 C 48.917969 25.511719 47.019531 23.4375 43.246094 23.4375 L 10.972656 23.4375 L 10.972656 8.816406 L 44.84375 8.816406 C 50.277344 8.816406 54.648438 10.742188 57.996094 14.59375 Z M 57.996094 14.59375 "/>
<path style=" stroke:none;fill-rule:nonzero;fill:url(#linear1);" d="M 128.003906 43.480469 C 124.65625 39.628906 122.984375 34.617188 122.984375 28.429688 C 122.984375 22.238281 124.65625 17.230469 128.003906 13.378906 C 131.351562 9.527344 135.742188 7.601562 141.15625 7.601562 L 175.027344 7.601562 L 175.027344 22.222656 L 142.753906 22.222656 C 138.980469 22.222656 137.082031 24.296875 137.082031 28.429688 C 137.082031 32.5625 138.980469 34.636719 142.753906 34.636719 L 175.027344 34.636719 L 175.027344 49.257812 L 141.15625 49.257812 C 135.722656 49.257812 131.351562 47.332031 128.003906 43.480469 Z M 128.003906 43.480469 "/>
<path style=" stroke:none;fill-rule:nonzero;fill:url(#linear2);" d="M 68.671875 11.285156 C 71.777344 8.554688 75.8125 7.207031 80.796875 7.207031 C 85.78125 7.207031 89.820312 8.574219 92.925781 11.285156 C 96.03125 14.011719 97.574219 17.566406 97.574219 21.996094 L 97.574219 49.554688 L 85.800781 49.554688 L 85.800781 23.304688 C 85.800781 20.238281 84.128906 18.6875 80.796875 18.6875 C 77.46875 18.6875 75.796875 20.21875 75.796875 23.304688 L 75.796875 49.574219 L 64.019531 49.574219 L 64.019531 21.996094 C 64.019531 17.585938 65.582031 14.011719 68.671875 11.285156 Z M 68.671875 11.285156 "/>
<path style=" stroke:none;fill-rule:nonzero;fill:url(#linear3);" d="M 92.90625 11.285156 C 96.011719 8.554688 100.050781 7.207031 105.035156 7.207031 C 110.019531 7.207031 114.054688 8.574219 117.160156 11.285156 C 120.269531 14.011719 121.8125 17.566406 121.8125 21.996094 L 121.8125 49.554688 L 110.039062 49.554688 L 110.039062 23.304688 C 110.039062 20.238281 108.363281 18.6875 105.035156 18.6875 C 101.703125 18.6875 100.03125 20.21875 100.03125 23.304688 L 100.03125 49.574219 L 88.257812 49.574219 L 88.257812 21.996094 C 88.257812 17.585938 89.800781 14.011719 92.90625 11.285156 Z M 92.90625 11.285156 "/>
<path style=" stroke:none;fill-rule:nonzero;fill:rgb(9.019608%,9.019608%,9.019608%);fill-opacity:1;" d="M 11.457031 61.691406 L 11.457031 56.792969 L 12.386719 56.792969 L 12.386719 61.691406 Z M 20.105469 56.792969 L 20.105469 61.691406 L 19.175781 61.691406 L 17.203125 58.417969 L 17.1875 58.417969 L 17.1875 61.691406 L 16.257812 61.691406 L 16.257812 56.792969 L 17.1875 56.792969 L 19.15625 60.0625 L 19.175781 60.0625 L 19.175781 56.792969 Z M 28.085938 56.792969 L 26.335938 61.691406 L 25.445312 61.691406 L 23.695312 56.792969 L 24.664062 56.792969 L 25.871094 60.324219 L 25.890625 60.324219 L 27.101562 56.792969 Z M 32.625 60.867188 L 35.285156 60.867188 L 35.285156 61.691406 L 31.714844 61.691406 L 31.714844 56.792969 L 35.285156 56.792969 L 35.285156 57.613281 L 32.625 57.613281 L 32.625 58.828125 L 34.835938 58.828125 L 34.835938 59.652344 L 32.625 59.652344 Z M 42.835938 56.792969 L 42.835938 61.691406 L 41.90625 61.691406 L 39.933594 58.417969 L 39.914062 58.417969 L 39.914062 61.691406 L 38.984375 61.691406 L 38.984375 56.792969 L 39.914062 56.792969 L 41.886719 60.0625 L 41.90625 60.0625 L 41.90625 56.792969 Z M 50.257812 57.613281 L 48.804688 57.613281 L 48.804688 61.691406 L 47.875 61.691406 L 47.875 57.613281 L 46.445312 57.613281 L 46.445312 56.792969 L 50.257812 56.792969 Z M 53.867188 61.691406 L 53.867188 56.792969 L 54.796875 56.792969 L 54.796875 61.691406 Z M 62.515625 56.792969 L 62.515625 61.691406 L 61.585938 61.691406 L 59.613281 58.417969 L 59.59375 58.417969 L 59.59375 61.691406 L 58.664062 61.691406 L 58.664062 56.792969 L 59.59375 56.792969 L 61.566406 60.0625 L 61.585938 60.0625 L 61.585938 56.792969 Z M 71.273438 61.691406 L 70.34375 61.691406 L 70.34375 60.90625 L 70.328125 60.90625 C 69.9375 61.503906 69.398438 61.800781 68.691406 61.800781 C 68.019531 61.800781 67.445312 61.558594 66.960938 61.074219 C 66.476562 60.585938 66.253906 59.96875 66.253906 59.242188 C 66.253906 58.511719 66.511719 57.914062 67.015625 57.410156 C 67.519531 56.921875 68.152344 56.679688 68.914062 56.679688 C 69.453125 56.679688 69.953125 56.828125 70.402344 57.128906 C 70.847656 57.425781 71.144531 57.820312 71.273438 58.304688 L 70.269531 58.304688 C 70.160156 58.0625 69.972656 57.875 69.730469 57.726562 C 69.488281 57.578125 69.230469 57.503906 68.914062 57.503906 C 68.429688 57.503906 68.039062 57.671875 67.703125 58.007812 C 67.386719 58.34375 67.21875 58.753906 67.21875 59.222656 C 67.21875 59.691406 67.386719 60.082031 67.703125 60.417969 C 68.019531 60.753906 68.410156 60.921875 68.855469 60.921875 C 69.230469 60.921875 69.5625 60.792969 69.84375 60.53125 C 70.121094 60.269531 70.308594 59.96875 70.363281 59.613281 L 68.894531 59.613281 L 68.894531 58.792969 L 71.273438 58.792969 Z M 83.589844 57.613281 L 82.136719 57.613281 L 82.136719 61.691406 L 81.207031 61.691406 L 81.207031 57.613281 L 79.792969 57.613281 L 79.792969 56.792969 L 83.605469 56.792969 L 83.605469 57.613281 Z M 91.027344 61.691406 L 90.097656 61.691406 L 90.097656 59.652344 L 88.125 59.652344 L 88.125 61.691406 L 87.195312 61.691406 L 87.195312 56.792969 L 88.125 56.792969 L 88.125 58.828125 L 90.097656 58.828125 L 90.097656 56.792969 L 91.027344 56.792969 Z M 95.847656 60.867188 L 98.503906 60.867188 L 98.503906 61.691406 L 94.933594 61.691406 L 94.933594 56.792969 L 98.503906 56.792969 L 98.503906 57.613281 L 95.847656 57.613281 L 95.847656 58.828125 L 98.058594 58.828125 L 98.058594 59.652344 L 95.847656 59.652344 Z M 107.117188 61.691406 L 107.117188 56.792969 L 108.046875 56.792969 L 108.046875 61.691406 Z M 115.933594 58.25 L 114.835938 60.15625 L 113.980469 60.15625 L 112.882812 58.25 L 112.863281 58.25 L 112.863281 61.710938 L 111.933594 61.710938 L 111.933594 56.808594 L 112.996094 56.808594 L 114.390625 59.203125 L 114.410156 59.203125 L 115.820312 56.808594 L 116.863281 56.808594 L 116.863281 61.710938 L 115.953125 61.710938 L 115.953125 58.25 Z M 124.136719 57.277344 C 124.472656 57.597656 124.636719 57.988281 124.636719 58.472656 C 124.636719 58.941406 124.472656 59.351562 124.136719 59.671875 C 123.800781 59.988281 123.390625 60.15625 122.925781 60.15625 L 121.699219 60.15625 L 121.699219 61.710938 L 120.769531 61.710938 L 120.769531 56.808594 L 122.910156 56.808594 C 123.390625 56.792969 123.800781 56.960938 124.136719 57.277344 Z M 123.449219 59.074219 C 123.597656 58.90625 123.671875 58.699219 123.671875 58.472656 C 123.671875 58.230469 123.597656 58.042969 123.449219 57.875 C 123.300781 57.707031 123.132812 57.632812 122.925781 57.632812 L 121.699219 57.632812 L 121.699219 59.335938 L 122.925781 59.335938 C 123.132812 59.316406 123.300781 59.242188 123.449219 59.074219 Z M 132.058594 60.476562 C 132.394531 60.136719 132.542969 59.726562 132.542969 59.261719 C 132.542969 58.773438 132.375 58.382812 132.058594 58.042969 C 131.726562 57.707031 131.335938 57.539062 130.871094 57.539062 C 130.40625 57.539062 129.996094 57.707031 129.679688 58.042969 C 129.34375 58.382812 129.195312 58.792969 129.195312 59.261719 C 129.195312 59.746094 129.363281 60.136719 129.679688 60.476562 C 130.015625 60.8125 130.40625 60.980469 130.871094 60.980469 C 131.335938 60.980469 131.726562 60.8125 132.058594 60.476562 Z M 132.730469 57.425781 C 133.25 57.914062 133.511719 58.53125 133.511719 59.242188 C 133.511719 59.953125 133.25 60.570312 132.730469 61.054688 C 132.207031 61.539062 131.59375 61.800781 130.851562 61.800781 C 130.105469 61.800781 129.492188 61.558594 128.972656 61.074219 C 128.453125 60.585938 128.210938 59.96875 128.210938 59.242188 C 128.210938 58.511719 128.46875 57.914062 128.972656 57.425781 C 129.492188 56.941406 130.105469 56.679688 130.851562 56.679688 C 131.59375 56.679688 132.226562 56.941406 132.730469 57.425781 Z M 140.652344 58.15625 L 139.742188 58.15625 C 139.742188 57.96875 139.667969 57.820312 139.5 57.6875 C 139.351562 57.558594 139.148438 57.503906 138.921875 57.503906 C 138.679688 57.503906 138.496094 57.558594 138.367188 57.652344 C 138.234375 57.746094 138.160156 57.894531 138.160156 58.0625 C 138.160156 58.210938 138.214844 58.34375 138.308594 58.4375 C 138.402344 58.53125 138.53125 58.605469 138.679688 58.644531 C 138.832031 58.679688 138.996094 58.734375 139.183594 58.753906 C 139.371094 58.792969 139.554688 58.828125 139.742188 58.886719 C 139.929688 58.941406 140.09375 59.015625 140.242188 59.109375 C 140.394531 59.203125 140.523438 59.351562 140.617188 59.539062 C 140.710938 59.726562 140.765625 59.96875 140.765625 60.230469 C 140.765625 60.699219 140.597656 61.074219 140.242188 61.355469 C 139.890625 61.632812 139.460938 61.765625 138.921875 61.765625 C 138.382812 61.765625 137.957031 61.617188 137.621094 61.335938 C 137.285156 61.054688 137.121094 60.660156 137.121094 60.175781 L 138.03125 60.175781 C 138.03125 60.398438 138.105469 60.585938 138.273438 60.738281 C 138.441406 60.886719 138.644531 60.960938 138.90625 60.960938 C 139.164062 60.960938 139.386719 60.886719 139.539062 60.753906 C 139.703125 60.625 139.777344 60.457031 139.777344 60.25 C 139.777344 60.101562 139.722656 59.96875 139.628906 59.859375 C 139.539062 59.765625 139.40625 59.691406 139.257812 59.632812 C 139.109375 59.578125 138.941406 59.539062 138.757812 59.523438 C 138.570312 59.484375 138.382812 59.445312 138.199219 59.390625 C 138.011719 59.335938 137.84375 59.261719 137.695312 59.167969 C 137.546875 59.074219 137.417969 58.921875 137.324219 58.734375 C 137.230469 58.550781 137.175781 58.304688 137.175781 58.042969 C 137.175781 57.613281 137.34375 57.277344 137.660156 57.035156 C 137.976562 56.792969 138.382812 56.660156 138.886719 56.660156 C 139.386719 56.660156 139.816406 56.792969 140.132812 57.054688 C 140.484375 57.335938 140.652344 57.707031 140.652344 58.15625 Z M 147.925781 58.15625 L 147.015625 58.15625 C 147.015625 57.96875 146.941406 57.820312 146.773438 57.6875 C 146.625 57.558594 146.417969 57.503906 146.195312 57.503906 C 145.953125 57.503906 145.769531 57.558594 145.636719 57.652344 C 145.507812 57.746094 145.433594 57.894531 145.433594 58.0625 C 145.433594 58.210938 145.488281 58.34375 145.582031 58.4375 C 145.675781 58.53125 145.804688 58.605469 145.953125 58.644531 C 146.101562 58.679688 146.269531 58.734375 146.457031 58.753906 C 146.640625 58.792969 146.828125 58.828125 147.015625 58.886719 C 147.199219 58.941406 147.367188 59.015625 147.515625 59.109375 C 147.664062 59.203125 147.796875 59.351562 147.886719 59.539062 C 147.980469 59.726562 148.039062 59.96875 148.039062 60.230469 C 148.039062 60.699219 147.871094 61.074219 147.515625 61.355469 C 147.164062 61.632812 146.734375 61.765625 146.195312 61.765625 C 145.65625 61.765625 145.230469 61.617188 144.894531 61.335938 C 144.558594 61.054688 144.390625 60.660156 144.390625 60.175781 L 145.304688 60.175781 C 145.304688 60.398438 145.378906 60.585938 145.546875 60.738281 C 145.710938 60.886719 145.917969 60.960938 146.175781 60.960938 C 146.4375 60.960938 146.660156 60.886719 146.808594 60.753906 C 146.976562 60.625 147.050781 60.457031 147.050781 60.25 C 147.050781 60.101562 146.996094 59.96875 146.902344 59.859375 C 146.808594 59.765625 146.679688 59.691406 146.53125 59.632812 C 146.382812 59.578125 146.214844 59.539062 146.027344 59.523438 C 145.84375 59.484375 145.65625 59.445312 145.46875 59.390625 C 145.285156 59.335938 145.117188 59.261719 144.96875 59.167969 C 144.820312 59.074219 144.6875 58.921875 144.597656 58.734375 C 144.503906 58.550781 144.449219 58.304688 144.449219 58.042969 C 144.449219 57.613281 144.613281 57.277344 144.929688 57.035156 C 145.246094 56.792969 145.65625 56.660156 146.160156 56.660156 C 146.660156 56.660156 147.089844 56.792969 147.40625 57.054688 C 147.757812 57.335938 147.925781 57.707031 147.925781 58.15625 Z M 151.8125 61.691406 L 151.8125 56.792969 L 152.742188 56.792969 L 152.742188 61.691406 Z M 160.480469 60.25 C 160.480469 60.679688 160.332031 61.035156 160.035156 61.296875 C 159.738281 61.558594 159.363281 61.691406 158.917969 61.691406 L 156.613281 61.691406 L 156.613281 56.792969 L 158.808594 56.792969 C 159.214844 56.792969 159.570312 56.902344 159.847656 57.148438 C 160.128906 57.390625 160.257812 57.707031 160.257812 58.121094 C 160.257812 58.304688 160.21875 58.457031 160.144531 58.605469 C 160.070312 58.734375 159.996094 58.828125 159.921875 58.90625 C 159.847656 58.960938 159.753906 59.015625 159.644531 59.074219 C 160.21875 59.296875 160.480469 59.691406 160.480469 60.25 Z M 159.363281 60.679688 C 159.476562 60.550781 159.53125 60.398438 159.53125 60.214844 C 159.53125 60.027344 159.476562 59.875 159.363281 59.746094 C 159.253906 59.613281 159.105469 59.539062 158.9375 59.539062 L 157.5625 59.539062 L 157.5625 60.867188 L 158.9375 60.867188 C 159.105469 60.867188 159.234375 60.8125 159.363281 60.679688 Z M 157.5625 57.613281 L 157.5625 58.734375 L 158.824219 58.734375 C 158.957031 58.734375 159.066406 58.679688 159.160156 58.566406 C 159.253906 58.457031 159.308594 58.324219 159.308594 58.175781 C 159.308594 58.027344 159.253906 57.894531 159.160156 57.78125 C 159.066406 57.671875 158.957031 57.613281 158.808594 57.613281 Z M 167.625 60.867188 L 167.625 61.691406 L 164.273438 61.691406 L 164.273438 56.792969 L 165.207031 56.792969 L 165.207031 60.867188 Z M 172.144531 60.867188 L 174.804688 60.867188 L 174.804688 61.691406 L 171.230469 61.691406 L 171.230469 56.792969 L 174.804688 56.792969 L 174.804688 57.613281 L 172.144531 57.613281 L 172.144531 58.828125 L 174.355469 58.828125 L 174.355469 59.652344 L 172.144531 59.652344 Z M 172.144531 60.867188 "/>
</g>
</svg>
